<?xml version="1.0" standalone="no"?><!DOCTYPE svg PUBLIC "-//W3C//DTD SVG 1.1//EN" "http://www.w3.org/Graphics/SVG/1.1/DTD/svg11.dtd"><svg t="1701009220993" class="icon" viewBox="0 0 1024 1024" version="1.1" xmlns="http://www.w3.org/2000/svg" p-id="5717" xmlns:xlink="http://www.w3.org/1999/xlink" width="300" height="300"><path d="M1024 512c0 282.7776-229.2224 512-512 512S0 794.7776 0 512 229.2224 0 512 0s512 229.2224 512 512z" fill="#f44c35" p-id="5718" data-spm-anchor-id="a313x.search_index.0.i9.40793a81I7EFhN" class="selected"></path><path d="M512 243.2c148.4544 0 268.8 120.3456 268.8 268.8s-120.3456 268.8-268.8 268.8-268.8-120.3456-268.8-268.8 120.3456-268.8 268.8-268.8z m0 358.4a51.2 51.2 0 1 0 0 102.4 51.2 51.2 0 0 0 0-102.4z m140.8-140.8a51.2 51.2 0 1 0 0 102.4 51.2 51.2 0 0 0 0-102.4z m-281.6 0a51.2 51.2 0 1 0 0 102.4 51.2 51.2 0 0 0 0-102.4z m140.8 12.8a38.4 38.4 0 1 0 0 76.8 38.4 38.4 0 0 0 0-76.8z m0-153.6a51.2 51.2 0 1 0 0 102.4 51.2 51.2 0 0 0 0-102.4z" fill="#FFFFFF" p-id="5719"></path><path d="M486.4 716.8m32 0l230.4 0q32 0 32 32l0 0q0 32-32 32l-230.4 0q-32 0-32-32l0 0q0-32 32-32Z" fill="#FFFFFF" p-id="5720"></path></svg>