<?xml version="1.0" standalone="no"?><!DOCTYPE svg PUBLIC "-//W3C//DTD SVG 1.1//EN" "http://www.w3.org/Graphics/SVG/1.1/DTD/svg11.dtd"><svg t="1700228324852" class="icon" viewBox="0 0 1024 1024" version="1.1" xmlns="http://www.w3.org/2000/svg" p-id="12067" xmlns:xlink="http://www.w3.org/1999/xlink" width="300" height="300"><path d="M753.3056 950.016H267.0592c-107.264 0-194.2016-86.9376-194.2016-194.2016V269.5168c0-107.264 86.9376-194.2016 194.2016-194.2016h486.2464c107.264 0 194.2016 86.9376 194.2016 194.2016v486.2464c0 107.264-86.9376 194.2528-194.2016 194.2528z" fill="#A46FFF" p-id="12068"></path><path d="M793.088 832.3072H512c-174.7968 0-317.0304-142.2336-317.0304-317.0304S337.2032 198.2464 512 198.2464s317.0304 142.2336 317.0304 317.0304c0 59.2384-16.4352 117.0432-47.5648 167.1168a25.59488 25.59488 0 0 1-35.2768 8.2432 25.59488 25.59488 0 0 1-8.2432-35.2768c26.0608-41.984 39.8848-90.4192 39.8848-140.0832 0-146.5856-119.2448-265.8304-265.8304-265.8304s-265.8304 119.2448-265.8304 265.8304 119.2448 265.8304 265.8304 265.8304h281.088c14.1312 0 25.6 11.4688 25.6 25.6s-11.4688 25.6-25.6 25.6z" fill="#F7F8F8" p-id="12069"></path><path d="M512 462.2848c-42.0352 0-76.288-34.2016-76.288-76.288s34.2016-76.288 76.288-76.288 76.288 34.2016 76.288 76.288-34.2528 76.288-76.288 76.288z m0-101.376c-13.824 0-25.088 11.264-25.088 25.088s11.264 25.088 25.088 25.088 25.088-11.264 25.088-25.088-11.264-25.088-25.088-25.088zM512 719.0528c-42.0352 0-76.288-34.2016-76.288-76.288s34.2016-76.288 76.288-76.288 76.288 34.2016 76.288 76.288-34.2528 76.288-76.288 76.288z m0-101.3248c-13.824 0-25.088 11.264-25.088 25.088s11.264 25.088 25.088 25.088 25.088-11.264 25.088-25.088c0-13.8752-11.264-25.088-25.088-25.088zM640.4096 590.6432c-42.0352 0-76.288-34.2016-76.288-76.288s34.2016-76.288 76.288-76.288 76.288 34.2016 76.288 76.288-34.2528 76.288-76.288 76.288z m0-101.3248c-13.824 0-25.088 11.264-25.088 25.088s11.264 25.088 25.088 25.088 25.088-11.264 25.088-25.088-11.264-25.088-25.088-25.088zM383.5904 590.6432c-42.0352 0-76.288-34.2016-76.288-76.288s34.2016-76.288 76.288-76.288 76.288 34.2016 76.288 76.288-34.2016 76.288-76.288 76.288z m0-101.3248c-13.824 0-25.088 11.264-25.088 25.088s11.264 25.088 25.088 25.088 25.088-11.264 25.088-25.088-11.264-25.088-25.088-25.088z" fill="#F7F8F8" p-id="12070"></path></svg>